<svg width="166" height="45" viewBox="0 0 166 45" fill="none" xmlns="http://www.w3.org/2000/svg">
<g clip-path="url(#clip0_22_803)">
<rect width="166" height="45" fill="#233237"/>
<path fill-rule="evenodd" clip-rule="evenodd" d="M5.68049 25.6637C6.45862 26.4373 6.45861 27.6917 5.68046 28.4653L5.64061 28.5049C4.86246 29.2786 3.60084 29.2785 2.8227 28.5049C2.04456 27.7312 2.04458 26.4769 2.82273 25.7033L2.86258 25.6636C3.64073 24.89 4.90235 24.89 5.68049 25.6637Z" fill="#0AC3E6"/>
<path fill-rule="evenodd" clip-rule="evenodd" d="M15.0481 26.2604C15.8248 27.0355 15.8225 28.2898 15.043 29.0621L9.52359 34.5298C8.74404 35.302 7.48242 35.2998 6.70568 34.5247C5.92895 33.7497 5.93123 32.4953 6.71078 31.7231L12.2302 26.2554C13.0097 25.4831 14.2713 25.4854 15.0481 26.2604Z" fill="#9BB4BE"/>
<path fill-rule="evenodd" clip-rule="evenodd" d="M22.5392 35.6727C23.1497 34.7624 24.3868 34.5164 25.3024 35.1233L25.422 35.2025C26.3376 35.8094 26.585 37.0394 25.9746 37.9498C25.3642 38.8601 24.1271 39.1061 23.2114 38.4992L23.0919 38.42C22.1762 37.8131 21.9288 36.5831 22.5392 35.6727Z" fill="#0AC3E6"/>
<path fill-rule="evenodd" clip-rule="evenodd" d="M35.6885 25.5448C36.4666 26.3184 36.4666 27.5728 35.6885 28.3464L32.9786 31.0407C32.2004 31.8143 30.9388 31.8143 30.1607 31.0407C29.3825 30.267 29.3825 29.0127 30.1607 28.239L32.8706 25.5448C33.6487 24.7711 34.9103 24.7711 35.6885 25.5448Z" fill="#9BB4BE"/>
<path fill-rule="evenodd" clip-rule="evenodd" d="M35.7283 15.5801C36.5065 16.3537 36.5065 17.608 35.7283 18.3817L15.7031 38.2913C14.9249 39.065 13.6633 39.065 12.8852 38.2913C12.107 37.5177 12.107 36.2633 12.8852 35.4897L32.9104 15.5801C33.6886 14.8064 34.9502 14.8064 35.7283 15.5801Z" fill="#DE411B"/>
<path fill-rule="evenodd" clip-rule="evenodd" d="M31.9425 9.45857C32.7206 10.2322 32.7206 11.4866 31.9425 12.2602L20.4254 23.7107C19.6473 24.4844 18.3857 24.4844 17.6075 23.7107C16.8294 22.9371 16.8294 21.6827 17.6075 20.9091L29.1245 9.45856C29.9027 8.68491 31.1643 8.68491 31.9425 9.45857Z" fill="#DE411B"/>
<path fill-rule="evenodd" clip-rule="evenodd" d="M25.8642 5.57475C26.6429 6.34788 26.6437 7.60222 25.8661 8.37639L11.0613 23.1155C10.2837 23.8896 9.0221 23.8905 8.24343 23.1173C7.46476 22.3442 7.46391 21.0899 8.24154 20.3157L23.0463 5.57663C23.8239 4.80246 25.0855 4.80162 25.8642 5.57475Z" fill="#DE411B"/>
<path fill-rule="evenodd" clip-rule="evenodd" d="M11.2023 10.293C11.9791 11.068 11.9769 12.3224 11.1974 13.0947L5.39909 18.8397C4.61961 19.6121 3.35799 19.6099 2.58119 18.8349C1.80438 18.0599 1.80655 16.8056 2.58604 16.0333L8.38439 10.2882C9.16387 9.5159 10.4255 9.51806 11.2023 10.293Z" fill="#9BB4BE"/>
<path fill-rule="evenodd" clip-rule="evenodd" d="M14.7524 4.55963C15.8529 4.55963 16.745 5.44658 16.745 6.54069V6.7388C16.745 7.8329 15.8529 8.71985 14.7524 8.71985C13.6519 8.71985 12.7598 7.8329 12.7598 6.7388V6.54069C12.7598 5.44658 13.6519 4.55963 14.7524 4.55963Z" fill="#0AC3E6"/>
<path d="M55.16 16.24H50.5V18.76H54.9V22.08H50.5V24.68H55.16V28H46.58V12.92H55.16V16.24ZM57.9863 28V12.92H61.9063L69.1463 22.14V12.92H73.0463V28H69.1463L61.9063 18.78V28H57.9863ZM80.1289 24.68H81.0289C81.7089 24.68 82.3156 24.5733 82.8489 24.36C83.3822 24.1467 83.8289 23.8533 84.1889 23.48C84.5622 23.1067 84.8422 22.6667 85.0289 22.16C85.2289 21.64 85.3289 21.0733 85.3289 20.46C85.3289 19.86 85.2289 19.3 85.0289 18.78C84.8289 18.26 84.5422 17.8133 84.1689 17.44C83.8089 17.0667 83.3622 16.7733 82.8289 16.56C82.2956 16.3467 81.6956 16.24 81.0289 16.24H80.1289V24.68ZM76.2089 12.92H82.0089C83.0356 12.92 83.9956 13.1267 84.8889 13.54C85.7956 13.9533 86.5822 14.5067 87.2489 15.2C87.9289 15.88 88.4622 16.68 88.8489 17.6C89.2356 18.5067 89.4289 19.46 89.4289 20.46C89.4289 21.4467 89.2356 22.4 88.8489 23.32C88.4756 24.2267 87.9489 25.0267 87.2689 25.72C86.6022 26.4133 85.8156 26.9667 84.9089 27.38C84.0156 27.7933 83.0489 28 82.0089 28H76.2089V12.92ZM99.487 22.4L97.727 17.38L95.967 22.4H99.487ZM100.527 25.38H94.927L94.027 28H89.847L95.587 12.92H99.867L105.607 28H101.427L100.527 25.38ZM113.439 20.46C113.439 19.34 113.646 18.3 114.059 17.34C114.472 16.3667 115.046 15.52 115.779 14.8C116.512 14.08 117.386 13.52 118.399 13.12C119.426 12.7067 120.552 12.5 121.779 12.5C122.992 12.5 124.112 12.7067 125.139 13.12C126.166 13.52 127.046 14.08 127.779 14.8C128.526 15.52 129.106 16.3667 129.519 17.34C129.932 18.3 130.139 19.34 130.139 20.46C130.139 21.5 129.966 22.4667 129.619 23.36C129.286 24.2533 128.799 25.0467 128.159 25.74L130.719 28.42L127.119 28.98L125.739 27.56C125.152 27.8267 124.526 28.0333 123.859 28.18C123.206 28.34 122.512 28.42 121.779 28.42C120.552 28.42 119.426 28.22 118.399 27.82C117.386 27.4067 116.512 26.84 115.779 26.12C115.046 25.4 114.472 24.56 114.059 23.6C113.646 22.6267 113.439 21.58 113.439 20.46ZM117.539 20.46C117.539 21.06 117.652 21.6133 117.879 22.12C118.106 22.6267 118.412 23.0667 118.799 23.44C119.186 23.8133 119.632 24.1067 120.139 24.32C120.659 24.52 121.206 24.62 121.779 24.62C122.126 24.62 122.472 24.58 122.819 24.5L120.579 22.14L124.279 21.68L125.319 22.78C125.799 22.1133 126.039 21.34 126.039 20.46C126.039 19.86 125.926 19.3067 125.699 18.8C125.472 18.2933 125.159 17.8533 124.759 17.48C124.372 17.1067 123.919 16.82 123.399 16.62C122.892 16.4067 122.352 16.3 121.779 16.3C121.206 16.3 120.659 16.4067 120.139 16.62C119.632 16.82 119.186 17.1067 118.799 17.48C118.412 17.8533 118.106 18.2933 117.879 18.8C117.652 19.3067 117.539 19.86 117.539 20.46ZM135.895 17.74V23.52C135.895 24.7867 136.508 25.42 137.735 25.42C138.962 25.42 139.575 24.7867 139.575 23.52V17.74H143.195V24.22C143.195 25.6067 142.735 26.6467 141.815 27.34C140.908 28.0333 139.548 28.38 137.735 28.38C135.922 28.38 134.555 28.0333 133.635 27.34C132.728 26.6467 132.275 25.6067 132.275 24.22V17.74H135.895ZM149.274 17.74V28H145.654V17.74H149.274ZM145.414 13.8C145.414 13.52 145.467 13.26 145.574 13.02C145.681 12.7667 145.827 12.5467 146.014 12.36C146.201 12.1733 146.414 12.0267 146.654 11.92C146.907 11.8133 147.174 11.76 147.454 11.76C147.734 11.76 147.994 11.8133 148.234 11.92C148.487 12.0267 148.707 12.1733 148.894 12.36C149.081 12.5467 149.227 12.7667 149.334 13.02C149.441 13.26 149.494 13.52 149.494 13.8C149.494 14.08 149.441 14.3467 149.334 14.6C149.227 14.84 149.081 15.0533 148.894 15.24C148.707 15.4267 148.487 15.5733 148.234 15.68C147.994 15.7867 147.734 15.84 147.454 15.84C147.174 15.84 146.907 15.7867 146.654 15.68C146.414 15.5733 146.201 15.4267 146.014 15.24C145.827 15.0533 145.681 14.84 145.574 14.6C145.467 14.3467 145.414 14.08 145.414 13.8ZM157.028 24.98H161.348V28H150.948L155.788 20.76H151.608V17.74H161.828L157.028 24.98Z" fill="white"/>
</g>
<defs>
<clipPath id="clip0_22_803">
<rect width="166" height="45" fill="#233237"/>
</clipPath>
</defs>
</svg>
