<svg width="40" height="40" viewBox="0 0 40 40" fill="none" xmlns="http://www.w3.org/2000/svg">
<circle cx="20" cy="20" r="20" fill="#F8F8F8"/>
<path d="M12.0755 20C12.0723 20.9961 12.3567 21.9788 12.9056 22.8679C13.5565 23.9334 14.557 24.8296 15.7952 25.4561C17.0334 26.0826 18.4603 26.4146 19.9161 26.4151C21.1336 26.4177 22.3346 26.185 23.4213 25.7358L28.6792 27.1698L26.9266 22.8679C27.4755 21.9788 27.7599 20.9961 27.7568 20C27.7562 18.8089 27.3503 17.6414 26.5846 16.6284C25.8189 15.6153 24.7236 14.7967 23.4213 14.2642C22.3346 13.8151 21.1336 13.5823 19.9161 13.5849H19.4549C17.5322 13.6717 15.7162 14.3357 14.3546 15.4497C12.9931 16.5638 12.1815 18.0496 12.0755 19.6226V20Z" stroke="#989898" stroke-width="2" stroke-linecap="round" stroke-linejoin="round"/>
</svg>
