<svg width="56" height="52" viewBox="0 0 56 52" fill="none" xmlns="http://www.w3.org/2000/svg">
<path d="M13.8108 16.6379C14.4181 16.0403 15.4029 16.0403 16.0102 16.6379L17.1108 17.7194L18.2107 16.6374C18.8186 16.0403 19.8034 16.0403 20.4107 16.6374C21.018 17.235 21.018 18.2033 20.4107 18.8004L19.3102 19.8825L20.4102 20.9635C21.0175 21.5611 21.0175 22.5294 20.4102 23.1265C19.8029 23.7236 18.8181 23.7236 18.2102 23.1265L17.1108 22.045L16.0108 23.1265C15.4035 23.7236 14.4186 23.7236 13.8113 23.1265C13.2035 22.5289 13.2035 21.5606 13.8113 20.9635L14.9108 19.8825L13.8108 18.8004C13.203 18.2034 13.203 17.2351 13.8108 16.6379Z" fill="#DE411B"/>
<path d="M35.5879 16.6379C36.1952 16.0403 37.1806 16.0403 37.7879 16.6379L38.8879 17.7194L39.9884 16.6374C40.5957 16.0403 41.5805 16.0403 42.1879 16.6374C42.7957 17.235 42.7957 18.2033 42.1879 18.8004L41.0879 19.8825L42.1873 20.9635C42.7951 21.5611 42.7951 22.5294 42.1873 23.1265C41.58 23.7236 40.5952 23.7236 39.9879 23.1265L38.8879 22.045L37.7884 23.1265C37.1806 23.7236 36.1958 23.7236 35.5884 23.1265C34.9812 22.5289 34.9812 21.5606 35.5884 20.9635L36.6879 19.8825L35.5879 18.8004C34.9801 18.2034 34.9801 17.2351 35.5879 16.6379Z" fill="#DE411B"/>
<path d="M16.6561 37.7883C16.0478 38.3849 15.0629 38.3834 14.4561 37.7858C13.8494 37.1876 13.8504 36.2193 14.4587 35.6227L17.578 32.5636C18.1858 31.968 19.1692 31.9685 19.7764 32.5651L21.7873 34.5428L23.7988 32.5651C24.0904 32.2784 24.4857 32.117 24.8982 32.117C25.3113 32.117 25.7066 32.2784 25.9988 32.5651L28.0097 34.5428L30.0206 32.5651C30.6284 31.968 31.6132 31.968 32.2206 32.5651L34.2315 34.5428L36.2429 32.5651C36.5351 32.2778 36.9315 32.117 37.3445 32.117C37.7575 32.1175 38.1533 32.2794 38.445 32.5672L41.5439 35.6263C42.1501 36.2244 42.148 37.1927 41.5397 37.7888C40.9309 38.3854 39.946 38.3833 39.3397 37.7847L37.3408 35.8116L35.332 37.7867C34.7242 38.3843 33.7394 38.3843 33.1321 37.7867L31.1206 35.8096L29.1097 37.7867C28.818 38.0734 28.4222 38.2348 28.0097 38.2348C27.5972 38.2348 27.2014 38.0734 26.9097 37.7867L24.8983 35.8096L22.8874 37.7867C22.2801 38.3843 21.2952 38.3843 20.6874 37.7867L18.6749 35.808L16.6561 37.7883Z" fill="#DE411B"/>
<path fill-rule="evenodd" clip-rule="evenodd" d="M12.4441 0C5.57128 0 0 5.4782 0 12.2356V39.7649C0 46.5223 5.57128 52 12.4441 52H43.5559C50.4282 52 56 46.5218 56 39.7649V12.2356C56 5.4782 50.4282 0 43.5559 0H12.4441ZM43.5559 3.05916H12.4441C7.28953 3.05916 3.1109 7.16759 3.1109 12.2356V39.7649C3.1109 44.8329 7.28953 48.9414 12.4441 48.9414H43.5559C48.7105 48.9414 52.8891 44.8329 52.8891 39.7649V12.2356C52.8891 7.16759 48.7105 3.05916 43.5559 3.05916Z" fill="#DE411B"/>
</svg>
